<?xml version="1.0" ?><svg xmlns="http://www.w3.org/2000/svg" xmlns:xlink="http://www.w3.org/1999/xlink" version="1.1" viewBox="0 0 512 512" style="enable-background:new 0 0 512 512;" xml:space="preserve"><g id="_x31_9_x2C__Good_Feedback_x2C__rating_x2C__thumbs_up_x2C__review_x2C__marketing_x2C__positive_feedback"><g><g><path style="fill:#1784FF;" d="M406,1H106C83.944,1,66,18.944,66,41v90c0,22.056,17.944,40,40,40h24.457l22.063,35.3     c3.919,6.269,13.052,6.252,16.961,0l22.063-35.3H406c22.056,0,40-17.944,40-40V41C446,18.944,428.056,1,406,1z M426,131     c0,11.028-8.972,20-20,20H186c-3.448,0-6.652,1.776-8.48,4.7L161,182.132L144.48,155.7c-1.828-2.924-5.032-4.7-8.48-4.7h-30     c-11.028,0-20-8.972-20-20V41c0-11.028,8.972-20,20-20h300c11.028,0,20,8.972,20,20V131z"/><path style="fill:#1784FF;" d="M386,51H126c-5.522,0-10,4.478-10,10s4.478,10,10,10h260c5.522,0,10-4.478,10-10     S391.522,51,386,51z"/><path style="fill:#1784FF;" d="M386,101H126c-5.522,0-10,4.478-10,10s4.478,10,10,10h260c5.522,0,10-4.478,10-10     S391.522,101,386,101z"/></g><g><path style="fill:#142943;" d="M421.778,327.437c11.229-6.848,18.889-18.966,19.211-32.756     c0.522-22.469-17.561-40.547-39.598-40.547h-64.751c4.09-16.796,5.975-33.917,5.627-51.155     c-0.495-24.583-17.619-45.522-41.632-50.919l-0.585-0.132c-20.443-4.59-40.7,8.231-45.292,28.675     c-9.725,43.294-47.508,73.531-91.882,73.531h-34.178C96.884,254.134,71,280.018,71,311.833v141.468     C71,485.116,96.884,511,128.699,511h242.485c21.666,0,39.698-17.347,40.196-38.67c0.234-10.061-3.271-19.234-9.181-26.305     c20.754-12.644,25.361-40.643,9.853-59.206C432.931,374.114,437.429,345.961,421.778,327.437z M91,453.301V311.833     c0-20.787,16.912-37.699,37.699-37.699h11.387V491h-11.387C107.912,491,91,474.088,91,453.301z M371.185,491H160.086V274.134     h2.791c53.67,0,99.76-37.348,111.396-89.148c1.048-4.666,3.851-8.645,7.891-11.203c7.085-4.484,13.748-2.222,14.077-2.211     c15.017,3.374,25.721,16.455,26.03,31.81c0.397,19.787-2.478,39.177-8.336,57.744c-2.033,6.451,2.794,13.009,9.537,13.009h77.919     c10.957,0,19.861,8.996,19.604,20.081c-0.247,10.552-9.31,19.136-20.202,19.136c-23.225,0-28.146,0-48.748,0     c-5.522,0-10,4.478-10,10s4.478,10,10,10h39.478c10.813,0,19.608,8.796,19.608,19.608c0,10.812-8.796,19.607-19.608,19.607     c-11.743,0-27.49,0-39.478,0c-5.522,0-10,4.478-10,10s4.478,10,10,10h29.607c10.813,0,19.608,8.796,19.608,19.608     s-8.796,19.608-19.608,19.608c-2.597,0-22.141,0-29.607,0c-5.522,0-10,4.478-10,10s4.478,10,10,10h19.738     c10.952,0,19.861,8.996,19.604,20.081C391.14,482.416,382.077,491,371.185,491z"/></g></g></g><g id="Layer_1"/></svg>